<mxfile host="Electron" modified="2023-08-31T08:44:10.291Z" agent="Mozilla/5.0 (Macintosh; Intel Mac OS X 10_15_7) AppleWebKit/537.36 (KHTML, like Gecko) draw.io/21.3.7 Chrome/112.0.5615.204 Electron/24.5.0 Safari/537.36" etag="4nSE78tm1W1E_U1dquPP" version="21.3.7" type="device">
  <diagram id="e2vLwhPOneZPLbPI2sQy" name="Page-1">
    <mxGraphModel dx="2192" dy="2253" grid="1" gridSize="10" guides="1" tooltips="1" connect="1" arrows="1" fold="1" page="1" pageScale="1" pageWidth="1169" pageHeight="1654" math="0" shadow="0">
      <root>
        <mxCell id="0" />
        <mxCell id="1" parent="0" />
        <mxCell id="n8ERuoMz0wGaSnpFPKBe-1" value="Order" style="swimlane;fontStyle=0;childLayout=stackLayout;horizontal=1;startSize=26;fillColor=#ffe6cc;horizontalStack=0;resizeParent=1;resizeParentMax=0;resizeLast=0;collapsible=1;marginBottom=0;swimlaneLine=1;strokeColor=#d79b00;" parent="1" vertex="1">
          <mxGeometry x="40" y="80" width="180" height="234" as="geometry">
            <mxRectangle x="100" y="100" width="60" height="26" as="alternateBounds" />
          </mxGeometry>
        </mxCell>
        <mxCell id="n8ERuoMz0wGaSnpFPKBe-2" value="List&lt;Item&gt;: items" style="text;strokeColor=none;fillColor=none;align=left;verticalAlign=top;spacingLeft=4;spacingRight=4;overflow=hidden;rotatable=0;points=[[0,0.5],[1,0.5]];portConstraint=eastwest;" parent="n8ERuoMz0wGaSnpFPKBe-1" vertex="1">
          <mxGeometry y="26" width="180" height="26" as="geometry" />
        </mxCell>
        <mxCell id="n8ERuoMz0wGaSnpFPKBe-3" value="String: description" style="text;strokeColor=none;fillColor=none;align=left;verticalAlign=top;spacingLeft=4;spacingRight=4;overflow=hidden;rotatable=0;points=[[0,0.5],[1,0.5]];portConstraint=eastwest;" parent="n8ERuoMz0wGaSnpFPKBe-1" vertex="1">
          <mxGeometry y="52" width="180" height="26" as="geometry" />
        </mxCell>
        <mxCell id="n8ERuoMz0wGaSnpFPKBe-4" value="String:Â businessProposal" style="text;strokeColor=none;fillColor=none;align=left;verticalAlign=top;spacingLeft=4;spacingRight=4;overflow=hidden;rotatable=0;points=[[0,0.5],[1,0.5]];portConstraint=eastwest;fontColor=#000000;" parent="n8ERuoMz0wGaSnpFPKBe-1" vertex="1">
          <mxGeometry y="78" width="180" height="26" as="geometry" />
        </mxCell>
        <mxCell id="n8ERuoMz0wGaSnpFPKBe-5" value="Customer: customer" style="text;strokeColor=none;fillColor=none;align=left;verticalAlign=top;spacingLeft=4;spacingRight=4;overflow=hidden;rotatable=0;points=[[0,0.5],[1,0.5]];portConstraint=eastwest;fontColor=#000000;" parent="n8ERuoMz0wGaSnpFPKBe-1" vertex="1">
          <mxGeometry y="104" width="180" height="26" as="geometry" />
        </mxCell>
        <mxCell id="n8ERuoMz0wGaSnpFPKBe-11" value="Integer: applicationNumber" style="text;strokeColor=none;fillColor=none;align=left;verticalAlign=top;spacingLeft=4;spacingRight=4;overflow=hidden;rotatable=0;points=[[0,0.5],[1,0.5]];portConstraint=eastwest;fontColor=#000000;" parent="n8ERuoMz0wGaSnpFPKBe-1" vertex="1">
          <mxGeometry y="130" width="180" height="26" as="geometry" />
        </mxCell>
        <mxCell id="qYJSlX8io_cMQXO1sd_D-31" value="LocalDate: createDate" style="text;strokeColor=none;fillColor=none;align=left;verticalAlign=top;spacingLeft=4;spacingRight=4;overflow=hidden;rotatable=0;points=[[0,0.5],[1,0.5]];portConstraint=eastwest;fontColor=#000000;" parent="n8ERuoMz0wGaSnpFPKBe-1" vertex="1">
          <mxGeometry y="156" width="180" height="26" as="geometry" />
        </mxCell>
        <mxCell id="-cLyYRSaxIGc8Vdrkl38-2" value="Contact: contact" style="text;strokeColor=none;fillColor=none;align=left;verticalAlign=top;spacingLeft=4;spacingRight=4;overflow=hidden;rotatable=0;points=[[0,0.5],[1,0.5]];portConstraint=eastwest;fontColor=#000000;" parent="n8ERuoMz0wGaSnpFPKBe-1" vertex="1">
          <mxGeometry y="182" width="180" height="26" as="geometry" />
        </mxCell>
        <mxCell id="Qwl9Rl1eCYx9EYwhhPpN-28" value="Employee: employee" style="text;strokeColor=none;fillColor=none;align=left;verticalAlign=top;spacingLeft=4;spacingRight=4;overflow=hidden;rotatable=0;points=[[0,0.5],[1,0.5]];portConstraint=eastwest;fontColor=#000000;" parent="n8ERuoMz0wGaSnpFPKBe-1" vertex="1">
          <mxGeometry y="208" width="180" height="26" as="geometry" />
        </mxCell>
        <mxCell id="n8ERuoMz0wGaSnpFPKBe-6" value="Item" style="swimlane;fontStyle=0;childLayout=stackLayout;horizontal=1;startSize=26;fillColor=#ffe6cc;horizontalStack=0;resizeParent=1;resizeParentMax=0;resizeLast=0;collapsible=1;marginBottom=0;direction=east;strokeColor=#d79b00;" parent="1" vertex="1">
          <mxGeometry x="300" y="20" width="222" height="208" as="geometry" />
        </mxCell>
        <mxCell id="n8ERuoMz0wGaSnpFPKBe-19" value="Tecnology: tecnology" style="text;strokeColor=none;fillColor=none;align=left;verticalAlign=top;spacingLeft=4;spacingRight=4;overflow=hidden;rotatable=0;points=[[0,0.5],[1,0.5]];portConstraint=eastwest;" parent="n8ERuoMz0wGaSnpFPKBe-6" vertex="1">
          <mxGeometry y="26" width="222" height="26" as="geometry" />
        </mxCell>
        <mxCell id="qYJSlX8io_cMQXO1sd_D-25" value="Boolean: isCustomerMaterial" style="text;strokeColor=none;fillColor=none;align=left;verticalAlign=top;spacingLeft=4;spacingRight=4;overflow=hidden;rotatable=0;points=[[0,0.5],[1,0.5]];portConstraint=eastwest;" parent="n8ERuoMz0wGaSnpFPKBe-6" vertex="1">
          <mxGeometry y="52" width="222" height="26" as="geometry" />
        </mxCell>
        <mxCell id="qYJSlX8io_cMQXO1sd_D-28" value="Integer: quantity" style="text;strokeColor=none;fillColor=none;align=left;verticalAlign=top;spacingLeft=4;spacingRight=4;overflow=hidden;rotatable=0;points=[[0,0.5],[1,0.5]];portConstraint=eastwest;" parent="n8ERuoMz0wGaSnpFPKBe-6" vertex="1">
          <mxGeometry y="78" width="222" height="26" as="geometry" />
        </mxCell>
        <mxCell id="qYJSlX8io_cMQXO1sd_D-32" value="Duration: estimatedDuration" style="text;strokeColor=none;fillColor=none;align=left;verticalAlign=top;spacingLeft=4;spacingRight=4;overflow=hidden;rotatable=0;points=[[0,0.5],[1,0.5]];portConstraint=eastwest;" parent="n8ERuoMz0wGaSnpFPKBe-6" vertex="1">
          <mxGeometry y="104" width="222" height="26" as="geometry" />
        </mxCell>
        <mxCell id="qYJSlX8io_cMQXO1sd_D-36" value="Duration: actualDuration" style="text;strokeColor=none;fillColor=none;align=left;verticalAlign=top;spacingLeft=4;spacingRight=4;overflow=hidden;rotatable=0;points=[[0,0.5],[1,0.5]];portConstraint=eastwest;" parent="n8ERuoMz0wGaSnpFPKBe-6" vertex="1">
          <mxGeometry y="130" width="222" height="26" as="geometry" />
        </mxCell>
        <mxCell id="qYJSlX8io_cMQXO1sd_D-37" value="Boolean: isAccepted" style="text;strokeColor=none;fillColor=none;align=left;verticalAlign=top;spacingLeft=4;spacingRight=4;overflow=hidden;rotatable=0;points=[[0,0.5],[1,0.5]];portConstraint=eastwest;" parent="n8ERuoMz0wGaSnpFPKBe-6" vertex="1">
          <mxGeometry y="156" width="222" height="26" as="geometry" />
        </mxCell>
        <mxCell id="A2TqOeIvu-ZldnTZLAqu-1" value="MonetaryAmount: price" style="text;strokeColor=none;fillColor=none;align=left;verticalAlign=top;spacingLeft=4;spacingRight=4;overflow=hidden;rotatable=0;points=[[0,0.5],[1,0.5]];portConstraint=eastwest;" vertex="1" parent="n8ERuoMz0wGaSnpFPKBe-6">
          <mxGeometry y="182" width="222" height="26" as="geometry" />
        </mxCell>
        <mxCell id="qYJSlX8io_cMQXO1sd_D-9" value="" style="edgeStyle=orthogonalEdgeStyle;fontSize=12;html=1;endArrow=ERmany;startArrow=ERmany;exitX=1;exitY=0.5;exitDx=0;exitDy=0;" parent="1" source="n8ERuoMz0wGaSnpFPKBe-2" target="n8ERuoMz0wGaSnpFPKBe-6" edge="1">
          <mxGeometry width="100" height="100" relative="1" as="geometry">
            <mxPoint x="310" y="280" as="sourcePoint" />
            <mxPoint x="200" y="520" as="targetPoint" />
            <Array as="points">
              <mxPoint x="260" y="119" />
              <mxPoint x="260" y="-10" />
              <mxPoint x="411" y="-10" />
            </Array>
          </mxGeometry>
        </mxCell>
        <mxCell id="qYJSlX8io_cMQXO1sd_D-10" value="Tecnology" style="swimlane;fontStyle=0;childLayout=stackLayout;horizontal=1;startSize=26;fillColor=#ffe6cc;horizontalStack=0;resizeParent=1;resizeParentMax=0;resizeLast=0;collapsible=1;marginBottom=0;fontSize=12;glass=0;comic=0;strokeColor=#d79b00;" parent="1" vertex="1">
          <mxGeometry x="600" y="527" width="230" height="260" as="geometry" />
        </mxCell>
        <mxCell id="qYJSlX8io_cMQXO1sd_D-14" value="String: drawingNumber" style="text;strokeColor=none;fillColor=none;align=left;verticalAlign=top;spacingLeft=4;spacingRight=4;overflow=hidden;rotatable=0;points=[[0,0.5],[1,0.5]];portConstraint=eastwest;" parent="qYJSlX8io_cMQXO1sd_D-10" vertex="1">
          <mxGeometry y="26" width="230" height="26" as="geometry" />
        </mxCell>
        <mxCell id="qYJSlX8io_cMQXO1sd_D-15" value="String: drawingName" style="text;strokeColor=none;fillColor=none;align=left;verticalAlign=top;spacingLeft=4;spacingRight=4;overflow=hidden;rotatable=0;points=[[0,0.5],[1,0.5]];portConstraint=eastwest;" parent="qYJSlX8io_cMQXO1sd_D-10" vertex="1">
          <mxGeometry y="52" width="230" height="26" as="geometry" />
        </mxCell>
        <mxCell id="qYJSlX8io_cMQXO1sd_D-24" value="Employee: employee" style="text;strokeColor=none;fillColor=none;align=left;verticalAlign=top;spacingLeft=4;spacingRight=4;overflow=hidden;rotatable=0;points=[[0,0.5],[1,0.5]];portConstraint=eastwest;" parent="qYJSlX8io_cMQXO1sd_D-10" vertex="1">
          <mxGeometry y="78" width="230" height="26" as="geometry" />
        </mxCell>
        <mxCell id="qYJSlX8io_cMQXO1sd_D-21" value="List&lt;Setup&gt;: setups" style="text;strokeColor=none;fillColor=none;align=left;verticalAlign=top;spacingLeft=4;spacingRight=4;overflow=hidden;rotatable=0;points=[[0,0.5],[1,0.5]];portConstraint=eastwest;" parent="qYJSlX8io_cMQXO1sd_D-10" vertex="1">
          <mxGeometry y="104" width="230" height="26" as="geometry" />
        </mxCell>
        <mxCell id="qYJSlX8io_cMQXO1sd_D-19" value="Integer: quantityOfSetUpParts" style="text;strokeColor=none;fillColor=none;align=left;verticalAlign=top;spacingLeft=4;spacingRight=4;overflow=hidden;rotatable=0;points=[[0,0.5],[1,0.5]];portConstraint=eastwest;" parent="qYJSlX8io_cMQXO1sd_D-10" vertex="1">
          <mxGeometry y="130" width="230" height="26" as="geometry" />
        </mxCell>
        <mxCell id="qYJSlX8io_cMQXO1sd_D-18" value="Integer: quantityOfPartsFromWorkpiece" style="text;strokeColor=none;fillColor=none;align=left;verticalAlign=top;spacingLeft=4;spacingRight=4;overflow=hidden;rotatable=0;points=[[0,0.5],[1,0.5]];portConstraint=eastwest;" parent="qYJSlX8io_cMQXO1sd_D-10" vertex="1">
          <mxGeometry y="156" width="230" height="26" as="geometry" />
        </mxCell>
        <mxCell id="qYJSlX8io_cMQXO1sd_D-17" value="Workpiece: workpiece" style="text;strokeColor=none;fillColor=none;align=left;verticalAlign=top;spacingLeft=4;spacingRight=4;overflow=hidden;rotatable=0;points=[[0,0.5],[1,0.5]];portConstraint=eastwest;" parent="qYJSlX8io_cMQXO1sd_D-10" vertex="1">
          <mxGeometry y="182" width="230" height="26" as="geometry" />
        </mxCell>
        <mxCell id="qYJSlX8io_cMQXO1sd_D-33" value="LocalDate: date" style="text;strokeColor=none;fillColor=none;align=left;verticalAlign=top;spacingLeft=4;spacingRight=4;overflow=hidden;rotatable=0;points=[[0,0.5],[1,0.5]];portConstraint=eastwest;" parent="qYJSlX8io_cMQXO1sd_D-10" vertex="1">
          <mxGeometry y="208" width="230" height="26" as="geometry" />
        </mxCell>
        <mxCell id="qWoinmzPVpNmCgeFVtjN-1" value="Boolean: isComputed" style="text;strokeColor=none;fillColor=none;align=left;verticalAlign=top;spacingLeft=4;spacingRight=4;overflow=hidden;rotatable=0;points=[[0,0.5],[1,0.5]];portConstraint=eastwest;" parent="qYJSlX8io_cMQXO1sd_D-10" vertex="1">
          <mxGeometry y="234" width="230" height="26" as="geometry" />
        </mxCell>
        <mxCell id="qYJSlX8io_cMQXO1sd_D-26" value="" style="edgeStyle=orthogonalEdgeStyle;fontSize=12;html=1;endArrow=ERoneToMany;jumpStyle=arc;exitX=0.5;exitY=0;exitDx=0;exitDy=0;" parent="1" source="qYJSlX8io_cMQXO1sd_D-10" target="n8ERuoMz0wGaSnpFPKBe-19" edge="1">
          <mxGeometry width="100" height="100" relative="1" as="geometry">
            <mxPoint x="590" y="100" as="sourcePoint" />
            <mxPoint x="550" y="280" as="targetPoint" />
            <Array as="points">
              <mxPoint x="715" y="470" />
              <mxPoint x="560" y="470" />
              <mxPoint x="560" y="59" />
            </Array>
          </mxGeometry>
        </mxCell>
        <mxCell id="qYJSlX8io_cMQXO1sd_D-38" value="Material" style="swimlane;fontStyle=0;childLayout=stackLayout;horizontal=1;startSize=26;fillColor=#ffe6cc;horizontalStack=0;resizeParent=1;resizeParentMax=0;resizeLast=0;collapsible=1;marginBottom=0;fontSize=12;strokeColor=#d79b00;" parent="1" vertex="1">
          <mxGeometry x="-300" y="810" width="171" height="156" as="geometry" />
        </mxCell>
        <mxCell id="qYJSlX8io_cMQXO1sd_D-39" value="String: materialName" style="text;strokeColor=none;fillColor=none;align=left;verticalAlign=top;spacingLeft=4;spacingRight=4;overflow=hidden;rotatable=0;points=[[0,0.5],[1,0.5]];portConstraint=eastwest;" parent="qYJSlX8io_cMQXO1sd_D-38" vertex="1">
          <mxGeometry y="26" width="171" height="26" as="geometry" />
        </mxCell>
        <mxCell id="A2TqOeIvu-ZldnTZLAqu-5" value="String: geometry" style="text;strokeColor=none;fillColor=none;align=left;verticalAlign=top;spacingLeft=4;spacingRight=4;overflow=hidden;rotatable=0;points=[[0,0.5],[1,0.5]];portConstraint=eastwest;" vertex="1" parent="qYJSlX8io_cMQXO1sd_D-38">
          <mxGeometry y="52" width="171" height="26" as="geometry" />
        </mxCell>
        <mxCell id="qYJSlX8io_cMQXO1sd_D-40" value="Integer: density" style="text;strokeColor=none;fillColor=none;align=left;verticalAlign=top;spacingLeft=4;spacingRight=4;overflow=hidden;rotatable=0;points=[[0,0.5],[1,0.5]];portConstraint=eastwest;" parent="qYJSlX8io_cMQXO1sd_D-38" vertex="1">
          <mxGeometry y="78" width="171" height="26" as="geometry" />
        </mxCell>
        <mxCell id="qYJSlX8io_cMQXO1sd_D-41" value="Money: price" style="text;strokeColor=none;fillColor=none;align=left;verticalAlign=top;spacingLeft=4;spacingRight=4;overflow=hidden;rotatable=0;points=[[0,0.5],[1,0.5]];portConstraint=eastwest;" parent="qYJSlX8io_cMQXO1sd_D-38" vertex="1">
          <mxGeometry y="104" width="171" height="26" as="geometry" />
        </mxCell>
        <mxCell id="qYJSlX8io_cMQXO1sd_D-43" value="LocalDate: dateOfActuality" style="text;strokeColor=none;fillColor=none;align=left;verticalAlign=top;spacingLeft=4;spacingRight=4;overflow=hidden;rotatable=0;points=[[0,0.5],[1,0.5]];portConstraint=eastwest;" parent="qYJSlX8io_cMQXO1sd_D-38" vertex="1">
          <mxGeometry y="130" width="171" height="26" as="geometry" />
        </mxCell>
        <mxCell id="qYJSlX8io_cMQXO1sd_D-52" value="Employee" style="swimlane;fontStyle=0;childLayout=stackLayout;horizontal=1;startSize=26;fillColor=#ffe6cc;horizontalStack=0;resizeParent=1;resizeParentMax=0;resizeLast=0;collapsible=1;marginBottom=0;fontSize=12;strokeColor=#d79b00;" parent="1" vertex="1">
          <mxGeometry x="352" y="583" width="140" height="130" as="geometry" />
        </mxCell>
        <mxCell id="qYJSlX8io_cMQXO1sd_D-54" value="String: firstName" style="text;strokeColor=none;fillColor=none;align=left;verticalAlign=top;spacingLeft=4;spacingRight=4;overflow=hidden;rotatable=0;points=[[0,0.5],[1,0.5]];portConstraint=eastwest;" parent="qYJSlX8io_cMQXO1sd_D-52" vertex="1">
          <mxGeometry y="26" width="140" height="26" as="geometry" />
        </mxCell>
        <mxCell id="qYJSlX8io_cMQXO1sd_D-55" value="String: lastName" style="text;strokeColor=none;fillColor=none;align=left;verticalAlign=top;spacingLeft=4;spacingRight=4;overflow=hidden;rotatable=0;points=[[0,0.5],[1,0.5]];portConstraint=eastwest;" parent="qYJSlX8io_cMQXO1sd_D-52" vertex="1">
          <mxGeometry y="52" width="140" height="26" as="geometry" />
        </mxCell>
        <mxCell id="qYJSlX8io_cMQXO1sd_D-53" value="String: position" style="text;strokeColor=none;fillColor=none;align=left;verticalAlign=top;spacingLeft=4;spacingRight=4;overflow=hidden;rotatable=0;points=[[0,0.5],[1,0.5]];portConstraint=eastwest;" parent="qYJSlX8io_cMQXO1sd_D-52" vertex="1">
          <mxGeometry y="78" width="140" height="26" as="geometry" />
        </mxCell>
        <mxCell id="qYJSlX8io_cMQXO1sd_D-57" value="Department: department" style="text;strokeColor=none;fillColor=none;align=left;verticalAlign=top;spacingLeft=4;spacingRight=4;overflow=hidden;rotatable=0;points=[[0,0.5],[1,0.5]];portConstraint=eastwest;" parent="qYJSlX8io_cMQXO1sd_D-52" vertex="1">
          <mxGeometry y="104" width="140" height="26" as="geometry" />
        </mxCell>
        <mxCell id="qYJSlX8io_cMQXO1sd_D-56" value="" style="edgeStyle=orthogonalEdgeStyle;fontSize=12;html=1;endArrow=ERmany;startArrow=ERmany;exitX=0.75;exitY=0;exitDx=0;exitDy=0;" parent="1" source="qYJSlX8io_cMQXO1sd_D-52" target="qYJSlX8io_cMQXO1sd_D-24" edge="1">
          <mxGeometry width="100" height="100" relative="1" as="geometry">
            <mxPoint x="520" y="570" as="sourcePoint" />
            <mxPoint x="160" y="690" as="targetPoint" />
            <Array as="points">
              <mxPoint x="457" y="550" />
              <mxPoint x="546" y="550" />
              <mxPoint x="546" y="618" />
            </Array>
          </mxGeometry>
        </mxCell>
        <mxCell id="qYJSlX8io_cMQXO1sd_D-58" value="Department" style="swimlane;fontStyle=0;childLayout=stackLayout;horizontal=1;startSize=26;fillColor=#ffe6cc;horizontalStack=0;resizeParent=1;resizeParentMax=0;resizeLast=0;collapsible=1;marginBottom=0;fontSize=12;strokeColor=#d79b00;" parent="1" vertex="1">
          <mxGeometry x="276.5" y="340" width="160" height="78" as="geometry" />
        </mxCell>
        <mxCell id="qYJSlX8io_cMQXO1sd_D-59" value="String: departmentName" style="text;strokeColor=none;fillColor=none;align=left;verticalAlign=top;spacingLeft=4;spacingRight=4;overflow=hidden;rotatable=0;points=[[0,0.5],[1,0.5]];portConstraint=eastwest;" parent="qYJSlX8io_cMQXO1sd_D-58" vertex="1">
          <mxGeometry y="26" width="160" height="26" as="geometry" />
        </mxCell>
        <mxCell id="qYJSlX8io_cMQXO1sd_D-61" value="List&lt;Employee&gt;: eployers" style="text;strokeColor=none;fillColor=none;align=left;verticalAlign=top;spacingLeft=4;spacingRight=4;overflow=hidden;rotatable=0;points=[[0,0.5],[1,0.5]];portConstraint=eastwest;" parent="qYJSlX8io_cMQXO1sd_D-58" vertex="1">
          <mxGeometry y="52" width="160" height="26" as="geometry" />
        </mxCell>
        <mxCell id="qYJSlX8io_cMQXO1sd_D-62" value="" style="edgeStyle=orthogonalEdgeStyle;fontSize=12;html=1;endArrow=ERoneToMany;rounded=1;entryX=0.5;entryY=0;entryDx=0;entryDy=0;" parent="1" source="qYJSlX8io_cMQXO1sd_D-61" target="qYJSlX8io_cMQXO1sd_D-52" edge="1">
          <mxGeometry width="100" height="100" relative="1" as="geometry">
            <mxPoint x="60" y="810" as="sourcePoint" />
            <mxPoint x="160" y="710" as="targetPoint" />
            <Array as="points">
              <mxPoint x="480" y="405" />
              <mxPoint x="480" y="530" />
              <mxPoint x="422" y="530" />
            </Array>
          </mxGeometry>
        </mxCell>
        <mxCell id="qYJSlX8io_cMQXO1sd_D-63" value="Company" style="swimlane;fontStyle=0;childLayout=stackLayout;horizontal=1;startSize=26;fillColor=#ffe6cc;horizontalStack=0;resizeParent=1;resizeParentMax=0;resizeLast=0;collapsible=1;marginBottom=0;fontSize=12;strokeColor=#d79b00;" parent="1" vertex="1">
          <mxGeometry x="610" y="10" width="210" height="442" as="geometry" />
        </mxCell>
        <mxCell id="qYJSlX8io_cMQXO1sd_D-64" value="String: companyName" style="text;strokeColor=none;fillColor=none;align=left;verticalAlign=top;spacingLeft=4;spacingRight=4;overflow=hidden;rotatable=0;points=[[0,0.5],[1,0.5]];portConstraint=eastwest;" parent="qYJSlX8io_cMQXO1sd_D-63" vertex="1">
          <mxGeometry y="26" width="210" height="26" as="geometry" />
        </mxCell>
        <mxCell id="qYJSlX8io_cMQXO1sd_D-65" value="String: address" style="text;strokeColor=none;fillColor=none;align=left;verticalAlign=top;spacingLeft=4;spacingRight=4;overflow=hidden;rotatable=0;points=[[0,0.5],[1,0.5]];portConstraint=eastwest;" parent="qYJSlX8io_cMQXO1sd_D-63" vertex="1">
          <mxGeometry y="52" width="210" height="26" as="geometry" />
        </mxCell>
        <mxCell id="qYJSlX8io_cMQXO1sd_D-66" value="String: inn" style="text;strokeColor=none;fillColor=none;align=left;verticalAlign=top;spacingLeft=4;spacingRight=4;overflow=hidden;rotatable=0;points=[[0,0.5],[1,0.5]];portConstraint=eastwest;" parent="qYJSlX8io_cMQXO1sd_D-63" vertex="1">
          <mxGeometry y="78" width="210" height="26" as="geometry" />
        </mxCell>
        <mxCell id="qYJSlX8io_cMQXO1sd_D-67" value="String: kpp" style="text;strokeColor=none;fillColor=none;align=left;verticalAlign=top;spacingLeft=4;spacingRight=4;overflow=hidden;rotatable=0;points=[[0,0.5],[1,0.5]];portConstraint=eastwest;" parent="qYJSlX8io_cMQXO1sd_D-63" vertex="1">
          <mxGeometry y="104" width="210" height="26" as="geometry" />
        </mxCell>
        <mxCell id="qYJSlX8io_cMQXO1sd_D-68" value="String: ogrn" style="text;strokeColor=none;fillColor=none;align=left;verticalAlign=top;spacingLeft=4;spacingRight=4;overflow=hidden;rotatable=0;points=[[0,0.5],[1,0.5]];portConstraint=eastwest;" parent="qYJSlX8io_cMQXO1sd_D-63" vertex="1">
          <mxGeometry y="130" width="210" height="26" as="geometry" />
        </mxCell>
        <mxCell id="qYJSlX8io_cMQXO1sd_D-69" value="String: okpo" style="text;strokeColor=none;fillColor=none;align=left;verticalAlign=top;spacingLeft=4;spacingRight=4;overflow=hidden;rotatable=0;points=[[0,0.5],[1,0.5]];portConstraint=eastwest;" parent="qYJSlX8io_cMQXO1sd_D-63" vertex="1">
          <mxGeometry y="156" width="210" height="26" as="geometry" />
        </mxCell>
        <mxCell id="qYJSlX8io_cMQXO1sd_D-70" value="String: paymentAccount" style="text;strokeColor=none;fillColor=none;align=left;verticalAlign=top;spacingLeft=4;spacingRight=4;overflow=hidden;rotatable=0;points=[[0,0.5],[1,0.5]];portConstraint=eastwest;" parent="qYJSlX8io_cMQXO1sd_D-63" vertex="1">
          <mxGeometry y="182" width="210" height="26" as="geometry" />
        </mxCell>
        <mxCell id="qYJSlX8io_cMQXO1sd_D-71" value="String: bank" style="text;strokeColor=none;fillColor=none;align=left;verticalAlign=top;spacingLeft=4;spacingRight=4;overflow=hidden;rotatable=0;points=[[0,0.5],[1,0.5]];portConstraint=eastwest;" parent="qYJSlX8io_cMQXO1sd_D-63" vertex="1">
          <mxGeometry y="208" width="210" height="26" as="geometry" />
        </mxCell>
        <mxCell id="qYJSlX8io_cMQXO1sd_D-72" value="String: bik" style="text;strokeColor=none;fillColor=none;align=left;verticalAlign=top;spacingLeft=4;spacingRight=4;overflow=hidden;rotatable=0;points=[[0,0.5],[1,0.5]];portConstraint=eastwest;" parent="qYJSlX8io_cMQXO1sd_D-63" vertex="1">
          <mxGeometry y="234" width="210" height="26" as="geometry" />
        </mxCell>
        <mxCell id="qYJSlX8io_cMQXO1sd_D-73" value="String: correspondentAccount" style="text;strokeColor=none;fillColor=none;align=left;verticalAlign=top;spacingLeft=4;spacingRight=4;overflow=hidden;rotatable=0;points=[[0,0.5],[1,0.5]];portConstraint=eastwest;" parent="qYJSlX8io_cMQXO1sd_D-63" vertex="1">
          <mxGeometry y="260" width="210" height="26" as="geometry" />
        </mxCell>
        <mxCell id="qYJSlX8io_cMQXO1sd_D-74" value="String: phone" style="text;strokeColor=none;fillColor=none;align=left;verticalAlign=top;spacingLeft=4;spacingRight=4;overflow=hidden;rotatable=0;points=[[0,0.5],[1,0.5]];portConstraint=eastwest;" parent="qYJSlX8io_cMQXO1sd_D-63" vertex="1">
          <mxGeometry y="286" width="210" height="26" as="geometry" />
        </mxCell>
        <mxCell id="qYJSlX8io_cMQXO1sd_D-75" value="List&lt;Department&gt; departments" style="text;strokeColor=none;fillColor=none;align=left;verticalAlign=top;spacingLeft=4;spacingRight=4;overflow=hidden;rotatable=0;points=[[0,0.5],[1,0.5]];portConstraint=eastwest;" parent="qYJSlX8io_cMQXO1sd_D-63" vertex="1">
          <mxGeometry y="312" width="210" height="26" as="geometry" />
        </mxCell>
        <mxCell id="qYJSlX8io_cMQXO1sd_D-76" value="Employee: director" style="text;strokeColor=none;fillColor=none;align=left;verticalAlign=top;spacingLeft=4;spacingRight=4;overflow=hidden;rotatable=0;points=[[0,0.5],[1,0.5]];portConstraint=eastwest;" parent="qYJSlX8io_cMQXO1sd_D-63" vertex="1">
          <mxGeometry y="338" width="210" height="26" as="geometry" />
        </mxCell>
        <mxCell id="qYJSlX8io_cMQXO1sd_D-82" value="String: email" style="text;strokeColor=none;fillColor=none;align=left;verticalAlign=top;spacingLeft=4;spacingRight=4;overflow=hidden;rotatable=0;points=[[0,0.5],[1,0.5]];portConstraint=eastwest;" parent="qYJSlX8io_cMQXO1sd_D-63" vertex="1">
          <mxGeometry y="364" width="210" height="26" as="geometry" />
        </mxCell>
        <mxCell id="qYJSlX8io_cMQXO1sd_D-138" value="List&lt;Order&gt;: orders" style="text;strokeColor=none;fillColor=none;align=left;verticalAlign=top;spacingLeft=4;spacingRight=4;overflow=hidden;rotatable=0;points=[[0,0.5],[1,0.5]];portConstraint=eastwest;" parent="qYJSlX8io_cMQXO1sd_D-63" vertex="1">
          <mxGeometry y="390" width="210" height="26" as="geometry" />
        </mxCell>
        <mxCell id="qYJSlX8io_cMQXO1sd_D-144" value="List&lt;ProductionUnit&gt;: units" style="text;strokeColor=none;fillColor=none;align=left;verticalAlign=top;spacingLeft=4;spacingRight=4;overflow=hidden;rotatable=0;points=[[0,0.5],[1,0.5]];portConstraint=eastwest;" parent="qYJSlX8io_cMQXO1sd_D-63" vertex="1">
          <mxGeometry y="416" width="210" height="26" as="geometry" />
        </mxCell>
        <mxCell id="qYJSlX8io_cMQXO1sd_D-78" value="" style="edgeStyle=entityRelationEdgeStyle;fontSize=12;html=1;endArrow=ERoneToMany;" parent="1" source="qYJSlX8io_cMQXO1sd_D-75" target="qYJSlX8io_cMQXO1sd_D-58" edge="1">
          <mxGeometry width="100" height="100" relative="1" as="geometry">
            <mxPoint x="60" y="860" as="sourcePoint" />
            <mxPoint x="160" y="760" as="targetPoint" />
          </mxGeometry>
        </mxCell>
        <mxCell id="qYJSlX8io_cMQXO1sd_D-81" value="" style="edgeStyle=orthogonalEdgeStyle;fontSize=12;html=1;endArrow=ERmandOne;startArrow=ERmandOne;entryX=0;entryY=0.5;entryDx=0;entryDy=0;jumpStyle=arc;verticalAlign=middle;" parent="1" source="qYJSlX8io_cMQXO1sd_D-52" target="qYJSlX8io_cMQXO1sd_D-76" edge="1">
          <mxGeometry width="100" height="100" relative="1" as="geometry">
            <mxPoint x="500" y="680" as="sourcePoint" />
            <mxPoint x="530" y="710" as="targetPoint" />
            <Array as="points">
              <mxPoint x="440" y="540" />
              <mxPoint x="520" y="540" />
              <mxPoint x="520" y="361" />
            </Array>
          </mxGeometry>
        </mxCell>
        <mxCell id="qYJSlX8io_cMQXO1sd_D-90" value="MeasureTool" style="swimlane;fontStyle=0;childLayout=stackLayout;horizontal=1;startSize=26;fillColor=#ffe6cc;horizontalStack=0;resizeParent=1;resizeParentMax=0;resizeLast=0;collapsible=1;marginBottom=0;fontSize=12;strokeColor=#d79b00;" parent="1" vertex="1">
          <mxGeometry x="305" y="800" width="140" height="130" as="geometry" />
        </mxCell>
        <mxCell id="qYJSlX8io_cMQXO1sd_D-91" value="String: toolName" style="text;strokeColor=none;fillColor=none;align=left;verticalAlign=top;spacingLeft=4;spacingRight=4;overflow=hidden;rotatable=0;points=[[0,0.5],[1,0.5]];portConstraint=eastwest;" parent="qYJSlX8io_cMQXO1sd_D-90" vertex="1">
          <mxGeometry y="26" width="140" height="26" as="geometry" />
        </mxCell>
        <mxCell id="qYJSlX8io_cMQXO1sd_D-92" value="String: description" style="text;strokeColor=none;fillColor=none;align=left;verticalAlign=top;spacingLeft=4;spacingRight=4;overflow=hidden;rotatable=0;points=[[0,0.5],[1,0.5]];portConstraint=eastwest;" parent="qYJSlX8io_cMQXO1sd_D-90" vertex="1">
          <mxGeometry y="52" width="140" height="26" as="geometry" />
        </mxCell>
        <mxCell id="qYJSlX8io_cMQXO1sd_D-93" value="Money: price" style="text;strokeColor=none;fillColor=none;align=left;verticalAlign=top;spacingLeft=4;spacingRight=4;overflow=hidden;rotatable=0;points=[[0,0.5],[1,0.5]];portConstraint=eastwest;" parent="qYJSlX8io_cMQXO1sd_D-90" vertex="1">
          <mxGeometry y="78" width="140" height="26" as="geometry" />
        </mxCell>
        <mxCell id="A2TqOeIvu-ZldnTZLAqu-25" value="Integer: amount" style="text;strokeColor=none;fillColor=none;align=left;verticalAlign=top;spacingLeft=4;spacingRight=4;overflow=hidden;rotatable=0;points=[[0,0.5],[1,0.5]];portConstraint=eastwest;" vertex="1" parent="qYJSlX8io_cMQXO1sd_D-90">
          <mxGeometry y="104" width="140" height="26" as="geometry" />
        </mxCell>
        <mxCell id="qYJSlX8io_cMQXO1sd_D-94" value="" style="edgeStyle=orthogonalEdgeStyle;fontSize=12;html=1;endArrow=ERmany;startArrow=ERmany;shadow=0;strokeColor=#000000;" parent="1" source="qYJSlX8io_cMQXO1sd_D-22" target="qYJSlX8io_cMQXO1sd_D-90" edge="1">
          <mxGeometry width="100" height="100" relative="1" as="geometry">
            <mxPoint x="580" y="1040" as="sourcePoint" />
            <mxPoint x="160" y="1010" as="targetPoint" />
            <Array as="points">
              <mxPoint x="560" y="1057" />
              <mxPoint x="560" y="780" />
              <mxPoint x="422" y="780" />
            </Array>
          </mxGeometry>
        </mxCell>
        <mxCell id="qYJSlX8io_cMQXO1sd_D-103" value="Workpiece" style="swimlane;fontStyle=0;childLayout=stackLayout;horizontal=1;startSize=26;fillColor=#ffe6cc;horizontalStack=0;resizeParent=1;resizeParentMax=0;resizeLast=0;collapsible=1;marginBottom=0;fontSize=12;strokeColor=#d79b00;" parent="1" vertex="1">
          <mxGeometry x="110" y="761" width="140" height="130" as="geometry" />
        </mxCell>
        <mxCell id="qYJSlX8io_cMQXO1sd_D-104" value="Material: material" style="text;strokeColor=none;fillColor=none;align=left;verticalAlign=top;spacingLeft=4;spacingRight=4;overflow=hidden;rotatable=0;points=[[0,0.5],[1,0.5]];portConstraint=eastwest;" parent="qYJSlX8io_cMQXO1sd_D-103" vertex="1">
          <mxGeometry y="26" width="140" height="26" as="geometry" />
        </mxCell>
        <mxCell id="qYJSlX8io_cMQXO1sd_D-106" value="Integer: geom1" style="text;strokeColor=none;fillColor=none;align=left;verticalAlign=top;spacingLeft=4;spacingRight=4;overflow=hidden;rotatable=0;points=[[0,0.5],[1,0.5]];portConstraint=eastwest;" parent="qYJSlX8io_cMQXO1sd_D-103" vertex="1">
          <mxGeometry y="52" width="140" height="26" as="geometry" />
        </mxCell>
        <mxCell id="qYJSlX8io_cMQXO1sd_D-110" value="Integer: geom2&#xa;" style="text;strokeColor=none;fillColor=none;align=left;verticalAlign=top;spacingLeft=4;spacingRight=4;overflow=hidden;rotatable=0;points=[[0,0.5],[1,0.5]];portConstraint=eastwest;" parent="qYJSlX8io_cMQXO1sd_D-103" vertex="1">
          <mxGeometry y="78" width="140" height="26" as="geometry" />
        </mxCell>
        <mxCell id="qYJSlX8io_cMQXO1sd_D-111" value="Integer: geom3" style="text;strokeColor=none;fillColor=none;align=left;verticalAlign=top;spacingLeft=4;spacingRight=4;overflow=hidden;rotatable=0;points=[[0,0.5],[1,0.5]];portConstraint=eastwest;" parent="qYJSlX8io_cMQXO1sd_D-103" vertex="1">
          <mxGeometry y="104" width="140" height="26" as="geometry" />
        </mxCell>
        <mxCell id="qYJSlX8io_cMQXO1sd_D-107" value="" style="edgeStyle=orthogonalEdgeStyle;fontSize=12;html=1;endArrow=ERmany;startArrow=ERmany;shadow=0;strokeColor=#000000;jumpStyle=arc;" parent="1" source="qYJSlX8io_cMQXO1sd_D-104" target="qYJSlX8io_cMQXO1sd_D-38" edge="1">
          <mxGeometry width="100" height="100" relative="1" as="geometry">
            <mxPoint x="220" y="840" as="sourcePoint" />
            <mxPoint x="320" y="740" as="targetPoint" />
            <Array as="points">
              <mxPoint x="40" y="800" />
              <mxPoint x="40" y="875" />
            </Array>
          </mxGeometry>
        </mxCell>
        <mxCell id="qYJSlX8io_cMQXO1sd_D-112" value="Setup" style="swimlane;fontStyle=0;childLayout=stackLayout;horizontal=1;startSize=26;fillColor=#ffe6cc;horizontalStack=0;resizeParent=1;resizeParentMax=0;resizeLast=0;collapsible=1;marginBottom=0;fontSize=12;strokeColor=#d79b00;" parent="1" vertex="1">
          <mxGeometry x="595" y="862" width="240" height="286" as="geometry" />
        </mxCell>
        <mxCell id="qYJSlX8io_cMQXO1sd_D-120" value="Integer: setupNumber" style="text;strokeColor=none;fillColor=none;align=left;verticalAlign=top;spacingLeft=4;spacingRight=4;overflow=hidden;rotatable=0;points=[[0,0.5],[1,0.5]];portConstraint=eastwest;glass=0;" parent="qYJSlX8io_cMQXO1sd_D-112" vertex="1">
          <mxGeometry y="26" width="240" height="26" as="geometry" />
        </mxCell>
        <mxCell id="A2TqOeIvu-ZldnTZLAqu-18" value="Operation: operation" style="text;strokeColor=none;fillColor=none;align=left;verticalAlign=top;spacingLeft=4;spacingRight=4;overflow=hidden;rotatable=0;points=[[0,0.5],[1,0.5]];portConstraint=eastwest;" vertex="1" parent="qYJSlX8io_cMQXO1sd_D-112">
          <mxGeometry y="52" width="240" height="26" as="geometry" />
        </mxCell>
        <mxCell id="qYJSlX8io_cMQXO1sd_D-114" value="List&lt;Tooling&gt;: toolings" style="text;strokeColor=none;fillColor=none;align=left;verticalAlign=top;spacingLeft=4;spacingRight=4;overflow=hidden;rotatable=0;points=[[0,0.5],[1,0.5]];portConstraint=eastwest;" parent="qYJSlX8io_cMQXO1sd_D-112" vertex="1">
          <mxGeometry y="78" width="240" height="26" as="geometry" />
        </mxCell>
        <mxCell id="qYJSlX8io_cMQXO1sd_D-115" value="Duration: setupTime" style="text;strokeColor=none;fillColor=none;align=left;verticalAlign=top;spacingLeft=4;spacingRight=4;overflow=hidden;rotatable=0;points=[[0,0.5],[1,0.5]];portConstraint=eastwest;" parent="qYJSlX8io_cMQXO1sd_D-112" vertex="1">
          <mxGeometry y="104" width="240" height="26" as="geometry" />
        </mxCell>
        <mxCell id="qYJSlX8io_cMQXO1sd_D-117" value="Duration: processTime" style="text;strokeColor=none;fillColor=none;align=left;verticalAlign=top;spacingLeft=4;spacingRight=4;overflow=hidden;rotatable=0;points=[[0,0.5],[1,0.5]];portConstraint=eastwest;" parent="qYJSlX8io_cMQXO1sd_D-112" vertex="1">
          <mxGeometry y="130" width="240" height="26" as="geometry" />
        </mxCell>
        <mxCell id="qYJSlX8io_cMQXO1sd_D-118" value="Duration: interoperativeTime" style="text;strokeColor=none;fillColor=none;align=left;verticalAlign=top;spacingLeft=4;spacingRight=4;overflow=hidden;rotatable=0;points=[[0,0.5],[1,0.5]];portConstraint=eastwest;" parent="qYJSlX8io_cMQXO1sd_D-112" vertex="1">
          <mxGeometry y="156" width="240" height="26" as="geometry" />
        </mxCell>
        <mxCell id="qYJSlX8io_cMQXO1sd_D-22" value="List&lt;MeasuringTool&gt;: measureTools" style="text;strokeColor=none;fillColor=none;align=left;verticalAlign=top;spacingLeft=4;spacingRight=4;overflow=hidden;rotatable=0;points=[[0,0.5],[1,0.5]];portConstraint=eastwest;glass=0;" parent="qYJSlX8io_cMQXO1sd_D-112" vertex="1">
          <mxGeometry y="182" width="240" height="26" as="geometry" />
        </mxCell>
        <mxCell id="qYJSlX8io_cMQXO1sd_D-121" value="List&lt;AdditionalTooling&gt;: additionalToolings" style="text;strokeColor=none;fillColor=none;align=left;verticalAlign=top;spacingLeft=4;spacingRight=4;overflow=hidden;rotatable=0;points=[[0,0.5],[1,0.5]];portConstraint=eastwest;" parent="qYJSlX8io_cMQXO1sd_D-112" vertex="1">
          <mxGeometry y="208" width="240" height="26" as="geometry" />
        </mxCell>
        <mxCell id="qYJSlX8io_cMQXO1sd_D-122" value="List&lt;SpecialTool&gt;: specialTools" style="text;strokeColor=none;fillColor=none;align=left;verticalAlign=top;spacingLeft=4;spacingRight=4;overflow=hidden;rotatable=0;points=[[0,0.5],[1,0.5]];portConstraint=eastwest;" parent="qYJSlX8io_cMQXO1sd_D-112" vertex="1">
          <mxGeometry y="234" width="240" height="26" as="geometry" />
        </mxCell>
        <mxCell id="qYJSlX8io_cMQXO1sd_D-153" value="ProductionUnit: productionUnit" style="text;strokeColor=none;fillColor=none;align=left;verticalAlign=top;spacingLeft=4;spacingRight=4;overflow=hidden;rotatable=0;points=[[0,0.5],[1,0.5]];portConstraint=eastwest;" parent="qYJSlX8io_cMQXO1sd_D-112" vertex="1">
          <mxGeometry y="260" width="240" height="26" as="geometry" />
        </mxCell>
        <mxCell id="qYJSlX8io_cMQXO1sd_D-116" value="" style="edgeStyle=orthogonalEdgeStyle;fontSize=12;html=1;endArrow=ERoneToMany;shadow=0;strokeColor=#000000;jumpStyle=arc;" parent="1" source="qYJSlX8io_cMQXO1sd_D-17" target="qYJSlX8io_cMQXO1sd_D-103" edge="1">
          <mxGeometry width="100" height="100" relative="1" as="geometry">
            <mxPoint x="10" y="1110" as="sourcePoint" />
            <mxPoint x="110" y="1010" as="targetPoint" />
            <Array as="points">
              <mxPoint x="580" y="722" />
              <mxPoint x="580" y="730" />
              <mxPoint x="330" y="730" />
              <mxPoint x="330" y="700" />
              <mxPoint x="130" y="700" />
            </Array>
          </mxGeometry>
        </mxCell>
        <mxCell id="qYJSlX8io_cMQXO1sd_D-119" value="" style="edgeStyle=orthogonalEdgeStyle;fontSize=12;html=1;endArrow=ERoneToMany;shadow=0;strokeColor=#000000;entryX=0.5;entryY=0;entryDx=0;entryDy=0;" parent="1" source="qYJSlX8io_cMQXO1sd_D-21" target="qYJSlX8io_cMQXO1sd_D-112" edge="1">
          <mxGeometry width="100" height="100" relative="1" as="geometry">
            <mxPoint x="10" y="1140" as="sourcePoint" />
            <mxPoint x="110" y="1040" as="targetPoint" />
            <Array as="points">
              <mxPoint x="850" y="644" />
              <mxPoint x="850" y="830" />
              <mxPoint x="715" y="830" />
            </Array>
          </mxGeometry>
        </mxCell>
        <mxCell id="qYJSlX8io_cMQXO1sd_D-123" value="AdditionalTooling" style="swimlane;fontStyle=0;childLayout=stackLayout;horizontal=1;startSize=26;fillColor=#ffe6cc;horizontalStack=0;resizeParent=1;resizeParentMax=0;resizeLast=0;collapsible=1;marginBottom=0;fontSize=12;strokeColor=#d79b00;" parent="1" vertex="1">
          <mxGeometry x="333" y="1070" width="178" height="78" as="geometry" />
        </mxCell>
        <mxCell id="qYJSlX8io_cMQXO1sd_D-124" value="Workpiece: workpiece" style="text;strokeColor=none;fillColor=none;align=left;verticalAlign=top;spacingLeft=4;spacingRight=4;overflow=hidden;rotatable=0;points=[[0,0.5],[1,0.5]];portConstraint=eastwest;" parent="qYJSlX8io_cMQXO1sd_D-123" vertex="1">
          <mxGeometry y="26" width="178" height="26" as="geometry" />
        </mxCell>
        <mxCell id="-cLyYRSaxIGc8Vdrkl38-6" value="String: toolName" style="text;strokeColor=none;fillColor=none;align=left;verticalAlign=top;spacingLeft=4;spacingRight=4;overflow=hidden;rotatable=0;points=[[0,0.5],[1,0.5]];portConstraint=eastwest;" parent="qYJSlX8io_cMQXO1sd_D-123" vertex="1">
          <mxGeometry y="52" width="178" height="26" as="geometry" />
        </mxCell>
        <mxCell id="qYJSlX8io_cMQXO1sd_D-129" value="" style="edgeStyle=orthogonalEdgeStyle;fontSize=12;html=1;endArrow=ERmany;startArrow=ERmany;shadow=0;strokeColor=#000000;jumpStyle=arc;" parent="1" source="qYJSlX8io_cMQXO1sd_D-103" target="qYJSlX8io_cMQXO1sd_D-124" edge="1">
          <mxGeometry width="100" height="100" relative="1" as="geometry">
            <mxPoint x="280" y="790" as="sourcePoint" />
            <mxPoint x="280" y="960" as="targetPoint" />
            <Array as="points">
              <mxPoint x="180" y="730" />
              <mxPoint x="270" y="730" />
              <mxPoint x="270" y="1109" />
            </Array>
          </mxGeometry>
        </mxCell>
        <mxCell id="qYJSlX8io_cMQXO1sd_D-131" value="SpecialTool" style="swimlane;fontStyle=0;childLayout=stackLayout;horizontal=1;startSize=26;fillColor=#ffe6cc;horizontalStack=0;resizeParent=1;resizeParentMax=0;resizeLast=0;collapsible=1;marginBottom=0;fontSize=12;strokeColor=#d79b00;" parent="1" vertex="1">
          <mxGeometry x="305" y="1210" width="243" height="130" as="geometry" />
        </mxCell>
        <mxCell id="-cLyYRSaxIGc8Vdrkl38-7" value="String: toolName" style="text;strokeColor=none;fillColor=none;align=left;verticalAlign=top;spacingLeft=4;spacingRight=4;overflow=hidden;rotatable=0;points=[[0,0.5],[1,0.5]];portConstraint=eastwest;" parent="qYJSlX8io_cMQXO1sd_D-131" vertex="1">
          <mxGeometry y="26" width="243" height="26" as="geometry" />
        </mxCell>
        <mxCell id="-cLyYRSaxIGc8Vdrkl38-8" value="String: description" style="text;strokeColor=none;fillColor=none;align=left;verticalAlign=top;spacingLeft=4;spacingRight=4;overflow=hidden;rotatable=0;points=[[0,0.5],[1,0.5]];portConstraint=eastwest;" parent="qYJSlX8io_cMQXO1sd_D-131" vertex="1">
          <mxGeometry y="52" width="243" height="26" as="geometry" />
        </mxCell>
        <mxCell id="-cLyYRSaxIGc8Vdrkl38-9" value="Money: price" style="text;strokeColor=none;fillColor=none;align=left;verticalAlign=top;spacingLeft=4;spacingRight=4;overflow=hidden;rotatable=0;points=[[0,0.5],[1,0.5]];portConstraint=eastwest;" parent="qYJSlX8io_cMQXO1sd_D-131" vertex="1">
          <mxGeometry y="78" width="243" height="26" as="geometry" />
        </mxCell>
        <mxCell id="A2TqOeIvu-ZldnTZLAqu-27" value="Integer: amount" style="text;strokeColor=none;fillColor=none;align=left;verticalAlign=top;spacingLeft=4;spacingRight=4;overflow=hidden;rotatable=0;points=[[0,0.5],[1,0.5]];portConstraint=eastwest;" vertex="1" parent="qYJSlX8io_cMQXO1sd_D-131">
          <mxGeometry y="104" width="243" height="26" as="geometry" />
        </mxCell>
        <mxCell id="qYJSlX8io_cMQXO1sd_D-136" value="" style="edgeStyle=orthogonalEdgeStyle;fontSize=12;html=1;endArrow=ERmany;startArrow=ERmany;shadow=0;strokeColor=#000000;" parent="1" source="qYJSlX8io_cMQXO1sd_D-123" target="qYJSlX8io_cMQXO1sd_D-121" edge="1">
          <mxGeometry width="100" height="100" relative="1" as="geometry">
            <mxPoint x="540" y="1198" as="sourcePoint" />
            <mxPoint x="640" y="1098" as="targetPoint" />
            <Array as="points">
              <mxPoint x="422" y="1050" />
              <mxPoint x="540" y="1050" />
              <mxPoint x="540" y="1090" />
            </Array>
          </mxGeometry>
        </mxCell>
        <mxCell id="qYJSlX8io_cMQXO1sd_D-137" value="" style="edgeStyle=orthogonalEdgeStyle;fontSize=12;html=1;endArrow=ERmany;startArrow=ERmany;shadow=0;strokeColor=#000000;" parent="1" source="qYJSlX8io_cMQXO1sd_D-131" target="qYJSlX8io_cMQXO1sd_D-122" edge="1">
          <mxGeometry width="100" height="100" relative="1" as="geometry">
            <mxPoint x="570" y="1220" as="sourcePoint" />
            <mxPoint x="670" y="1120" as="targetPoint" />
            <Array as="points">
              <mxPoint x="427" y="1180" />
              <mxPoint x="540" y="1180" />
              <mxPoint x="540" y="1109" />
            </Array>
          </mxGeometry>
        </mxCell>
        <mxCell id="qYJSlX8io_cMQXO1sd_D-139" value="" style="edgeStyle=orthogonalEdgeStyle;fontSize=12;html=1;endArrow=ERoneToMany;shadow=0;strokeColor=#000000;" parent="1" source="qYJSlX8io_cMQXO1sd_D-138" target="n8ERuoMz0wGaSnpFPKBe-1" edge="1">
          <mxGeometry width="100" height="100" relative="1" as="geometry">
            <mxPoint x="920" y="260" as="sourcePoint" />
            <mxPoint x="1020" y="160" as="targetPoint" />
            <Array as="points">
              <mxPoint x="580" y="413" />
              <mxPoint x="580" y="-20" />
              <mxPoint x="130" y="-20" />
            </Array>
          </mxGeometry>
        </mxCell>
        <mxCell id="qYJSlX8io_cMQXO1sd_D-145" value="" style="edgeStyle=orthogonalEdgeStyle;fontSize=12;html=1;endArrow=ERoneToMany;shadow=0;strokeColor=#000000;exitX=1;exitY=0.5;exitDx=0;exitDy=0;entryX=0.5;entryY=0;entryDx=0;entryDy=0;" parent="1" source="qYJSlX8io_cMQXO1sd_D-144" target="qYJSlX8io_cMQXO1sd_D-146" edge="1">
          <mxGeometry width="100" height="100" relative="1" as="geometry">
            <mxPoint x="920" y="470" as="sourcePoint" />
            <mxPoint x="890" y="280" as="targetPoint" />
            <Array as="points">
              <mxPoint x="870" y="439" />
              <mxPoint x="870" y="440" />
              <mxPoint x="1030" y="440" />
            </Array>
          </mxGeometry>
        </mxCell>
        <mxCell id="qYJSlX8io_cMQXO1sd_D-146" value="ProductionUnit" style="swimlane;fontStyle=0;childLayout=stackLayout;horizontal=1;startSize=26;fillColor=#ffe6cc;horizontalStack=0;resizeParent=1;resizeParentMax=0;resizeLast=0;collapsible=1;marginBottom=0;fontSize=12;strokeColor=#d79b00;" parent="1" vertex="1">
          <mxGeometry x="920" y="527" width="220" height="104" as="geometry" />
        </mxCell>
        <mxCell id="qYJSlX8io_cMQXO1sd_D-147" value="String: unitName" style="text;strokeColor=none;fillColor=none;align=left;verticalAlign=top;spacingLeft=4;spacingRight=4;overflow=hidden;rotatable=0;points=[[0,0.5],[1,0.5]];portConstraint=eastwest;" parent="qYJSlX8io_cMQXO1sd_D-146" vertex="1">
          <mxGeometry y="26" width="220" height="26" as="geometry" />
        </mxCell>
        <mxCell id="nsFnw8IjrfLSAt_kIxbx-1" value="Integer: cost" style="text;strokeColor=none;fillColor=none;align=left;verticalAlign=top;spacingLeft=4;spacingRight=4;overflow=hidden;rotatable=0;points=[[0,0.5],[1,0.5]];portConstraint=eastwest;" parent="qYJSlX8io_cMQXO1sd_D-146" vertex="1">
          <mxGeometry y="52" width="220" height="26" as="geometry" />
        </mxCell>
        <mxCell id="hXkMLd4XhisWJfVcmsDA-1" value="MonetaryAmount: paymentPerHour" style="text;strokeColor=none;fillColor=none;align=left;verticalAlign=top;spacingLeft=4;spacingRight=4;overflow=hidden;rotatable=0;points=[[0,0.5],[1,0.5]];portConstraint=eastwest;" parent="qYJSlX8io_cMQXO1sd_D-146" vertex="1">
          <mxGeometry y="78" width="220" height="26" as="geometry" />
        </mxCell>
        <mxCell id="qYJSlX8io_cMQXO1sd_D-154" value="" style="edgeStyle=orthogonalEdgeStyle;fontSize=12;html=1;endArrow=ERoneToMany;shadow=0;strokeColor=#000000;" parent="1" source="qYJSlX8io_cMQXO1sd_D-153" target="qYJSlX8io_cMQXO1sd_D-146" edge="1">
          <mxGeometry width="100" height="100" relative="1" as="geometry">
            <mxPoint x="950" y="1050" as="sourcePoint" />
            <mxPoint x="1050" y="950" as="targetPoint" />
            <Array as="points">
              <mxPoint x="880" y="1161" />
              <mxPoint x="880" y="470" />
              <mxPoint x="960" y="470" />
            </Array>
          </mxGeometry>
        </mxCell>
        <mxCell id="fsPhwSQCUlOboSsDo3B6-6" value="Tooling" style="swimlane;fontStyle=0;childLayout=stackLayout;horizontal=1;startSize=26;fillColor=#ffe6cc;horizontalStack=0;resizeParent=1;resizeParentMax=0;resizeLast=0;collapsible=1;marginBottom=0;fontSize=12;strokeColor=#d79b00;" parent="1" vertex="1">
          <mxGeometry x="20" y="1057" width="140" height="130" as="geometry" />
        </mxCell>
        <mxCell id="fsPhwSQCUlOboSsDo3B6-7" value="String: toolingName" style="text;strokeColor=none;fillColor=none;align=left;verticalAlign=top;spacingLeft=4;spacingRight=4;overflow=hidden;rotatable=0;points=[[0,0.5],[1,0.5]];portConstraint=eastwest;" parent="fsPhwSQCUlOboSsDo3B6-6" vertex="1">
          <mxGeometry y="26" width="140" height="26" as="geometry" />
        </mxCell>
        <mxCell id="fsPhwSQCUlOboSsDo3B6-8" value="String: description" style="text;strokeColor=none;fillColor=none;align=left;verticalAlign=top;spacingLeft=4;spacingRight=4;overflow=hidden;rotatable=0;points=[[0,0.5],[1,0.5]];portConstraint=eastwest;" parent="fsPhwSQCUlOboSsDo3B6-6" vertex="1">
          <mxGeometry y="52" width="140" height="26" as="geometry" />
        </mxCell>
        <mxCell id="fsPhwSQCUlOboSsDo3B6-9" value="Money: price" style="text;strokeColor=none;fillColor=none;align=left;verticalAlign=top;spacingLeft=4;spacingRight=4;overflow=hidden;rotatable=0;points=[[0,0.5],[1,0.5]];portConstraint=eastwest;" parent="fsPhwSQCUlOboSsDo3B6-6" vertex="1">
          <mxGeometry y="78" width="140" height="26" as="geometry" />
        </mxCell>
        <mxCell id="A2TqOeIvu-ZldnTZLAqu-30" value="Integer: amount" style="text;strokeColor=none;fillColor=none;align=left;verticalAlign=top;spacingLeft=4;spacingRight=4;overflow=hidden;rotatable=0;points=[[0,0.5],[1,0.5]];portConstraint=eastwest;" vertex="1" parent="fsPhwSQCUlOboSsDo3B6-6">
          <mxGeometry y="104" width="140" height="26" as="geometry" />
        </mxCell>
        <mxCell id="fsPhwSQCUlOboSsDo3B6-11" value="" style="edgeStyle=orthogonalEdgeStyle;fontSize=12;html=1;endArrow=ERoneToMany;rounded=0;exitX=0.75;exitY=0;exitDx=0;exitDy=0;jumpStyle=arc;" parent="1" source="fsPhwSQCUlOboSsDo3B6-6" target="qYJSlX8io_cMQXO1sd_D-114" edge="1">
          <mxGeometry width="100" height="100" relative="1" as="geometry">
            <mxPoint x="190" y="1110" as="sourcePoint" />
            <mxPoint x="290" y="1010" as="targetPoint" />
            <Array as="points">
              <mxPoint x="125" y="953" />
            </Array>
          </mxGeometry>
        </mxCell>
        <mxCell id="fsPhwSQCUlOboSsDo3B6-15" value="cutting tool - ÑÐµÐ¶ÑÑÐ¸Ð¹ Ð¸ÑÑÑÑÐ¼ÐµÐ½Ñ&lt;br&gt;measure tool - Ð¼ÐµÑÐ¸ÑÐµÐ»Ñ&lt;br&gt;special tool - ÑÐ¿ÐµÑ Ð¸Ð½ÑÑÑÑÐ¼ÐµÐ½Ñ&lt;br&gt;additional tool - Ð¿ÑÐ¸ÑÐ¿Ð¾ÑÐ¾Ð±Ð»ÐµÐ½Ð¸Ðµ&lt;br&gt;tooling - Ð¾ÑÐ½Ð°ÑÑÐºÐ°" style="shape=note;size=20;whiteSpace=wrap;html=1;" parent="1" vertex="1">
          <mxGeometry x="890" y="903" width="250" height="147" as="geometry" />
        </mxCell>
        <mxCell id="Qwl9Rl1eCYx9EYwhhPpN-1" value="Customer" style="swimlane;fontStyle=0;childLayout=stackLayout;horizontal=1;startSize=26;fillColor=#ffe6cc;horizontalStack=0;resizeParent=1;resizeParentMax=0;resizeLast=0;collapsible=1;marginBottom=0;whiteSpace=wrap;html=1;strokeColor=#d79b00;" parent="1" vertex="1">
          <mxGeometry x="-250" y="260" width="180" height="312" as="geometry" />
        </mxCell>
        <mxCell id="Qwl9Rl1eCYx9EYwhhPpN-5" value="String: companyName" style="text;strokeColor=none;fillColor=none;align=left;verticalAlign=top;spacingLeft=4;spacingRight=4;overflow=hidden;rotatable=0;points=[[0,0.5],[1,0.5]];portConstraint=eastwest;" parent="Qwl9Rl1eCYx9EYwhhPpN-1" vertex="1">
          <mxGeometry y="26" width="180" height="26" as="geometry" />
        </mxCell>
        <mxCell id="Qwl9Rl1eCYx9EYwhhPpN-16" value="String: address" style="text;strokeColor=none;fillColor=none;align=left;verticalAlign=top;spacingLeft=4;spacingRight=4;overflow=hidden;rotatable=0;points=[[0,0.5],[1,0.5]];portConstraint=eastwest;" parent="Qwl9Rl1eCYx9EYwhhPpN-1" vertex="1">
          <mxGeometry y="52" width="180" height="26" as="geometry" />
        </mxCell>
        <mxCell id="Qwl9Rl1eCYx9EYwhhPpN-7" value="String: inn" style="text;strokeColor=none;fillColor=none;align=left;verticalAlign=top;spacingLeft=4;spacingRight=4;overflow=hidden;rotatable=0;points=[[0,0.5],[1,0.5]];portConstraint=eastwest;" parent="Qwl9Rl1eCYx9EYwhhPpN-1" vertex="1">
          <mxGeometry y="78" width="180" height="26" as="geometry" />
        </mxCell>
        <mxCell id="Qwl9Rl1eCYx9EYwhhPpN-8" value="String: kpp" style="text;strokeColor=none;fillColor=none;align=left;verticalAlign=top;spacingLeft=4;spacingRight=4;overflow=hidden;rotatable=0;points=[[0,0.5],[1,0.5]];portConstraint=eastwest;" parent="Qwl9Rl1eCYx9EYwhhPpN-1" vertex="1">
          <mxGeometry y="104" width="180" height="26" as="geometry" />
        </mxCell>
        <mxCell id="Qwl9Rl1eCYx9EYwhhPpN-9" value="String: ogrn" style="text;strokeColor=none;fillColor=none;align=left;verticalAlign=top;spacingLeft=4;spacingRight=4;overflow=hidden;rotatable=0;points=[[0,0.5],[1,0.5]];portConstraint=eastwest;" parent="Qwl9Rl1eCYx9EYwhhPpN-1" vertex="1">
          <mxGeometry y="130" width="180" height="26" as="geometry" />
        </mxCell>
        <mxCell id="Qwl9Rl1eCYx9EYwhhPpN-11" value="String: paymentAccount" style="text;strokeColor=none;fillColor=none;align=left;verticalAlign=top;spacingLeft=4;spacingRight=4;overflow=hidden;rotatable=0;points=[[0,0.5],[1,0.5]];portConstraint=eastwest;" parent="Qwl9Rl1eCYx9EYwhhPpN-1" vertex="1">
          <mxGeometry y="156" width="180" height="26" as="geometry" />
        </mxCell>
        <mxCell id="Qwl9Rl1eCYx9EYwhhPpN-12" value="String: bank" style="text;strokeColor=none;fillColor=none;align=left;verticalAlign=top;spacingLeft=4;spacingRight=4;overflow=hidden;rotatable=0;points=[[0,0.5],[1,0.5]];portConstraint=eastwest;" parent="Qwl9Rl1eCYx9EYwhhPpN-1" vertex="1">
          <mxGeometry y="182" width="180" height="26" as="geometry" />
        </mxCell>
        <mxCell id="Qwl9Rl1eCYx9EYwhhPpN-13" value="String: correspondentAccount" style="text;strokeColor=none;fillColor=none;align=left;verticalAlign=top;spacingLeft=4;spacingRight=4;overflow=hidden;rotatable=0;points=[[0,0.5],[1,0.5]];portConstraint=eastwest;" parent="Qwl9Rl1eCYx9EYwhhPpN-1" vertex="1">
          <mxGeometry y="208" width="180" height="26" as="geometry" />
        </mxCell>
        <mxCell id="Qwl9Rl1eCYx9EYwhhPpN-6" value="String: phone" style="text;strokeColor=none;fillColor=none;align=left;verticalAlign=top;spacingLeft=4;spacingRight=4;overflow=hidden;rotatable=0;points=[[0,0.5],[1,0.5]];portConstraint=eastwest;" parent="Qwl9Rl1eCYx9EYwhhPpN-1" vertex="1">
          <mxGeometry y="234" width="180" height="26" as="geometry" />
        </mxCell>
        <mxCell id="Qwl9Rl1eCYx9EYwhhPpN-14" value="String: email" style="text;strokeColor=none;fillColor=none;align=left;verticalAlign=top;spacingLeft=4;spacingRight=4;overflow=hidden;rotatable=0;points=[[0,0.5],[1,0.5]];portConstraint=eastwest;" parent="Qwl9Rl1eCYx9EYwhhPpN-1" vertex="1">
          <mxGeometry y="260" width="180" height="26" as="geometry" />
        </mxCell>
        <mxCell id="Qwl9Rl1eCYx9EYwhhPpN-18" value="List&lt;Contact&gt;: contacts" style="text;strokeColor=none;fillColor=none;align=left;verticalAlign=top;spacingLeft=4;spacingRight=4;overflow=hidden;rotatable=0;points=[[0,0.5],[1,0.5]];portConstraint=eastwest;" parent="Qwl9Rl1eCYx9EYwhhPpN-1" vertex="1">
          <mxGeometry y="286" width="180" height="26" as="geometry" />
        </mxCell>
        <mxCell id="Qwl9Rl1eCYx9EYwhhPpN-15" value="" style="edgeStyle=orthogonalEdgeStyle;fontSize=12;html=1;endArrow=ERoneToMany;rounded=1;entryX=0;entryY=0.5;entryDx=0;entryDy=0;exitX=0.5;exitY=0;exitDx=0;exitDy=0;" parent="1" source="Qwl9Rl1eCYx9EYwhhPpN-1" target="n8ERuoMz0wGaSnpFPKBe-5" edge="1">
          <mxGeometry width="100" height="100" relative="1" as="geometry">
            <mxPoint x="-80" y="130" as="sourcePoint" />
            <mxPoint x="20" y="30" as="targetPoint" />
          </mxGeometry>
        </mxCell>
        <mxCell id="Qwl9Rl1eCYx9EYwhhPpN-19" value="Contact" style="swimlane;fontStyle=0;childLayout=stackLayout;horizontal=1;startSize=26;fillColor=#ffe6cc;horizontalStack=0;resizeParent=1;resizeParentMax=0;resizeLast=0;collapsible=1;marginBottom=0;whiteSpace=wrap;html=1;strokeColor=#d79b00;" parent="1" vertex="1">
          <mxGeometry x="-230" y="669" width="140" height="104" as="geometry" />
        </mxCell>
        <mxCell id="Qwl9Rl1eCYx9EYwhhPpN-23" value="String: firstName" style="text;strokeColor=none;fillColor=none;align=left;verticalAlign=top;spacingLeft=4;spacingRight=4;overflow=hidden;rotatable=0;points=[[0,0.5],[1,0.5]];portConstraint=eastwest;" parent="Qwl9Rl1eCYx9EYwhhPpN-19" vertex="1">
          <mxGeometry y="26" width="140" height="26" as="geometry" />
        </mxCell>
        <mxCell id="Qwl9Rl1eCYx9EYwhhPpN-25" value="String: position" style="text;strokeColor=none;fillColor=none;align=left;verticalAlign=top;spacingLeft=4;spacingRight=4;overflow=hidden;rotatable=0;points=[[0,0.5],[1,0.5]];portConstraint=eastwest;" parent="Qwl9Rl1eCYx9EYwhhPpN-19" vertex="1">
          <mxGeometry y="52" width="140" height="26" as="geometry" />
        </mxCell>
        <mxCell id="Qwl9Rl1eCYx9EYwhhPpN-26" value="String: lastName" style="text;strokeColor=none;fillColor=none;align=left;verticalAlign=top;spacingLeft=4;spacingRight=4;overflow=hidden;rotatable=0;points=[[0,0.5],[1,0.5]];portConstraint=eastwest;" parent="Qwl9Rl1eCYx9EYwhhPpN-19" vertex="1">
          <mxGeometry y="78" width="140" height="26" as="geometry" />
        </mxCell>
        <mxCell id="Qwl9Rl1eCYx9EYwhhPpN-27" value="" style="edgeStyle=orthogonalEdgeStyle;fontSize=12;html=1;endArrow=ERoneToMany;rounded=1;" parent="1" source="Qwl9Rl1eCYx9EYwhhPpN-18" target="Qwl9Rl1eCYx9EYwhhPpN-19" edge="1">
          <mxGeometry width="100" height="100" relative="1" as="geometry">
            <mxPoint x="-360" y="780" as="sourcePoint" />
            <mxPoint x="-260" y="680" as="targetPoint" />
            <Array as="points">
              <mxPoint x="-160" y="610" />
              <mxPoint x="-160" y="610" />
            </Array>
          </mxGeometry>
        </mxCell>
        <mxCell id="Qwl9Rl1eCYx9EYwhhPpN-29" value="" style="edgeStyle=orthogonalEdgeStyle;fontSize=12;html=1;endArrow=ERoneToMany;rounded=1;entryX=0;entryY=0.5;entryDx=0;entryDy=0;" parent="1" source="Qwl9Rl1eCYx9EYwhhPpN-19" target="-cLyYRSaxIGc8Vdrkl38-2" edge="1">
          <mxGeometry width="100" height="100" relative="1" as="geometry">
            <mxPoint x="-50" y="550" as="sourcePoint" />
            <mxPoint x="50" y="450" as="targetPoint" />
            <Array as="points">
              <mxPoint x="-130" y="620" />
              <mxPoint x="-50" y="620" />
              <mxPoint x="-50" y="275" />
            </Array>
          </mxGeometry>
        </mxCell>
        <mxCell id="-cLyYRSaxIGc8Vdrkl38-1" value="" style="edgeStyle=orthogonalEdgeStyle;fontSize=12;html=1;endArrow=ERoneToMany;rounded=1;entryX=0.25;entryY=0;entryDx=0;entryDy=0;exitX=1;exitY=0.5;exitDx=0;exitDy=0;" parent="1" source="Qwl9Rl1eCYx9EYwhhPpN-28" target="qYJSlX8io_cMQXO1sd_D-52" edge="1">
          <mxGeometry width="100" height="100" relative="1" as="geometry">
            <mxPoint x="240" y="330" as="sourcePoint" />
            <mxPoint x="432" y="593" as="targetPoint" />
            <Array as="points">
              <mxPoint x="220" y="300" />
              <mxPoint x="250" y="300" />
              <mxPoint x="250" y="450" />
              <mxPoint x="387" y="450" />
            </Array>
          </mxGeometry>
        </mxCell>
        <mxCell id="A2TqOeIvu-ZldnTZLAqu-2" value="&lt;h1&gt;Item&lt;/h1&gt;&lt;p&gt;Ð¿Ð¾Ð»Ðµ price - ÑÐ°ÑÑÐµÑÐ½Ð¾Ðµ Ð¸Ð·Ð³Ð¾ÑÐ¾Ð²Ð»ÐµÐ½Ð¸Ðµ ÐÐÐÐÐ Ð´ÐµÑÐ°Ð»Ð¸&lt;/p&gt;&lt;p&gt;Ð¿Ð¾Ð»Ðµ estimatedDuration - ÑÐ°ÑÑÐµÑÐ½Ð¾Ðµ Ð²ÑÐµÐ¼Ñ Ð¸Ð·Ð³Ð¾ÑÐ¾Ð²Ð»ÐµÐ½Ð¸Ñ ÐÐ¡ÐÐ Ð¿Ð°ÑÑÐ¸Ð¸, Ð²ÐºÐ»ÑÑÐ°Ñ Ð½Ð°Ð»Ð°Ð´Ð¾ÑÐ½ÑÐµ&lt;/p&gt;" style="text;html=1;strokeColor=none;fillColor=none;spacing=5;spacingTop=-20;whiteSpace=wrap;overflow=hidden;rounded=0;" vertex="1" parent="1">
          <mxGeometry x="305" y="-210" width="190" height="160" as="geometry" />
        </mxCell>
        <mxCell id="A2TqOeIvu-ZldnTZLAqu-7" value="Operation" style="swimlane;fontStyle=0;childLayout=stackLayout;horizontal=1;startSize=26;horizontalStack=0;resizeParent=1;resizeParentMax=0;resizeLast=0;collapsible=1;marginBottom=0;align=center;fontSize=14;" vertex="1" parent="1">
          <mxGeometry x="630" y="1290" width="220" height="112" as="geometry" />
        </mxCell>
        <mxCell id="A2TqOeIvu-ZldnTZLAqu-8" value="String: operationName" style="text;strokeColor=none;fillColor=none;spacingLeft=4;spacingRight=4;overflow=hidden;rotatable=0;points=[[0,0.5],[1,0.5]];portConstraint=eastwest;fontSize=12;whiteSpace=wrap;html=1;" vertex="1" parent="A2TqOeIvu-ZldnTZLAqu-7">
          <mxGeometry y="26" width="220" height="30" as="geometry" />
        </mxCell>
        <mxCell id="A2TqOeIvu-ZldnTZLAqu-11" value="String: operationType" style="text;strokeColor=none;fillColor=none;spacingLeft=4;spacingRight=4;overflow=hidden;rotatable=0;points=[[0,0.5],[1,0.5]];portConstraint=eastwest;fontSize=12;whiteSpace=wrap;html=1;" vertex="1" parent="A2TqOeIvu-ZldnTZLAqu-7">
          <mxGeometry y="56" width="220" height="30" as="geometry" />
        </mxCell>
        <mxCell id="A2TqOeIvu-ZldnTZLAqu-20" value="MonetaryAmount: paymentPerHour" style="text;strokeColor=none;fillColor=none;align=left;verticalAlign=top;spacingLeft=4;spacingRight=4;overflow=hidden;rotatable=0;points=[[0,0.5],[1,0.5]];portConstraint=eastwest;" vertex="1" parent="A2TqOeIvu-ZldnTZLAqu-7">
          <mxGeometry y="86" width="220" height="26" as="geometry" />
        </mxCell>
        <mxCell id="A2TqOeIvu-ZldnTZLAqu-17" value="ENUM OperationTypeCalc&lt;br&gt;FROM_PROCESS_UNIT, FROM_OPERATION, NONE" style="shape=note;size=20;whiteSpace=wrap;html=1;" vertex="1" parent="1">
          <mxGeometry x="880" y="1280" width="250" height="80" as="geometry" />
        </mxCell>
        <mxCell id="A2TqOeIvu-ZldnTZLAqu-19" value="" style="edgeStyle=orthogonalEdgeStyle;fontSize=12;html=1;endArrow=ERmany;startArrow=ERmany;shadow=0;strokeColor=#000000;entryX=1;entryY=0.5;entryDx=0;entryDy=0;exitX=0.5;exitY=0;exitDx=0;exitDy=0;" edge="1" parent="1" source="A2TqOeIvu-ZldnTZLAqu-7" target="A2TqOeIvu-ZldnTZLAqu-18">
          <mxGeometry width="100" height="100" relative="1" as="geometry">
            <mxPoint x="437" y="1220" as="sourcePoint" />
            <mxPoint x="605" y="1145" as="targetPoint" />
            <Array as="points">
              <mxPoint x="740" y="1260" />
              <mxPoint x="860" y="1260" />
              <mxPoint x="860" y="927" />
            </Array>
          </mxGeometry>
        </mxCell>
      </root>
    </mxGraphModel>
  </diagram>
</mxfile>
